HIERARCHY
ROOT Hips
{
	OFFSET 0.000000 0.000000 0.000000
	CHANNELS 6 Xposition Yposition Zposition Zrotation Yrotation Xrotation 
	JOINT LHipJoint
	{
		OFFSET 0.000000 0.000000 0.000000
		CHANNELS 3 Zrotation Yrotation Xrotation
		JOINT LeftUpLeg
		{
			OFFSET 1.363060 -1.794630 0.839290
			CHANNELS 3 Zrotation Yrotation Xrotation
			JOINT LeftLeg
			{
				OFFSET 2.448110 -6.726130 0.000000
				CHANNELS 3 Zrotation Yrotation Xrotation
				JOINT LeftFoot
				{
					OFFSET 2.562200 -7.039590 0.000000
					CHANNELS 3 Zrotation Yrotation Xrotation
					JOINT LeftToeBase
					{
						OFFSET 0.157640 -0.433110 2.322550
						CHANNELS 3 Zrotation Yrotation Xrotation
						End Site
						{
							OFFSET 0.000000 0.000000 0.000000
						}
					}
				}
			}
		}
	}
	JOINT RHipJoint
	{
		OFFSET 0.000000 0.000000 0.000000
		CHANNELS 3 Zrotation Yrotation Xrotation
		JOINT RightUpLeg
		{
			OFFSET -1.305520 -1.794630 0.839290
			CHANNELS 3 Zrotation Yrotation Xrotation
			JOINT RightLeg
			{
				OFFSET -2.542530 -6.985550 0.000000
				CHANNELS 3 Zrotation Yrotation Xrotation
				JOINT RightFoot
				{
					OFFSET -2.568260 -7.056230 0.000000
					CHANNELS 3 Zrotation Yrotation Xrotation
					JOINT RightToeBase
					{
						OFFSET -0.164730 -0.452590 2.363150
						CHANNELS 3 Zrotation Yrotation Xrotation
						End Site
						{
							OFFSET 0.000000 0.000000 0.000000
						}
					}
				}
			}
		}
	}
}
MOTION
Frames: 19
Frame Time: 0.008333
2.361248 17.415163 -0.584508 28.779968 -85.346311 -7.583364 -9.314367 -1.172823 -1.053746 -9.857782 -4.961270 -40.311765 -1.380163 1.353414 32.951366 2.333452 12.130463 -7.341910 0.396000 0.000001 -21.504900 8.321681 0.151184 -1.286548 10.113394 3.620422 -14.472544 2.774550 1.336592 2.888796 -0.856078 -1.962853 -8.838129 -0.093900 -0.000000 -5.841101
2.244081 17.405232 -0.596396 29.691811 -85.581885 -8.549072 -9.218225 -1.207618 -0.956871 -9.949954 -4.893272 -40.513786 -1.518593 1.174791 30.647271 2.249538 11.616951 -6.993541 0.473500 0.000000 -21.674700 8.328874 0.128748 -1.323331 10.211560 3.636620 -13.739693 2.783581 1.375064 2.577243 -0.843274 -1.830767 -9.064560 -0.068000 -0.000000 -5.776100
2.126481 17.393939 -0.606638 30.615752 -85.833675 -9.535783 -9.127517 -1.243070 -0.860973 -10.029974 -4.797216 -40.678974 -1.659019 0.987861 28.305706 2.157534 11.079340 -6.634238 0.544900 0.000000 -21.875800 8.336666 0.105361 -1.367160 10.320685 3.628628 -13.008273 2.796818 1.409599 2.298458 -0.825623 -1.667981 -9.296390 -0.042000 0.000000 -5.773000
2.008308 17.381177 -0.615277 31.546515 -86.102742 -10.533990 -9.042013 -1.280260 -0.762455 -10.093224 -4.681165 -40.818673 -1.800486 0.792535 25.945518 2.057897 10.514571 -6.285144 0.605000 -0.000000 -22.119000 8.344777 0.080221 -1.415074 10.441853 3.597349 -12.292143 2.815141 1.440001 2.062634 -0.802800 -1.469837 -9.539413 -0.016100 0.000001 -5.830100
1.889379 17.366929 -0.622392 32.489919 -86.390758 -11.549838 -8.961727 -1.320660 -0.663395 -10.135909 -4.546550 -40.929355 -1.942031 0.589575 23.583683 1.949982 9.915891 -5.959917 0.650000 0.000000 -22.429300 8.353195 0.053464 -1.468551 10.576148 3.543031 -11.586644 2.838678 1.466032 1.870211 -0.774683 -1.235657 -9.792212 0.009101 -0.000000 -5.949500
1.769975 17.351217 -0.628021 33.441411 -86.699118 -12.583528 -8.886845 -1.366082 -0.565967 -10.154740 -4.391789 -41.013363 -2.082309 0.380612 21.239671 1.832748 9.274927 -5.663745 0.678200 0.000000 -22.820100 8.361414 0.025320 -1.527431 10.724213 3.469793 -10.890524 2.867285 1.487567 1.721373 -0.741943 -0.968829 -10.054240 0.032700 -0.000000 -6.127200
1.649786 17.334099 -0.632265 34.413420 -87.029324 -13.642460 -8.817635 -1.417204 -0.471879 -10.149142 -4.212612 -41.078332 -2.220081 0.167860 18.932332 1.704955 8.583049 -5.390970 0.690200 0.000000 -23.313999 8.369077 -0.004663 -1.589370 10.886197 3.385784 -10.205669 2.900347 1.504898 1.614834 -0.705842 -0.676625 -10.323363 0.054000 -0.000000 -6.362700
1.529131 17.315624 -0.635232 35.419693 -87.380777 -14.747127 -8.754571 -1.474931 -0.385835 -10.123197 -3.998815 -41.126549 -2.354415 -0.045388 16.680528 1.565096 7.831812 -5.128774 0.687600 0.000000 -23.914400 8.375886 -0.036221 -1.653793 11.061235 3.297492 -9.525504 2.936819 1.518135 1.545657 -0.668039 -0.369010 -10.597336 0.072400 0.000001 -6.646400
1.407723 17.295875 -0.636986 36.493090 -87.752723 -15.925397 -8.697928 -1.538645 -0.309978 -10.084626 -3.740354 -41.171720 -2.484920 -0.255597 14.502924 1.412320 7.015868 -4.857284 0.673000 0.000001 -24.626701 8.381639 -0.069993 -1.716589 11.248123 3.215332 -8.853201 2.975512 1.527859 1.510927 -0.630683 -0.058222 -10.875561 0.087600 -0.000000 -6.970500
1.285589 17.274923 -0.637603 37.701522 -88.142151 -17.245833 -8.647641 -1.607558 -0.248142 -10.045979 -3.425602 -41.222516 -2.611795 -0.459025 12.415829 1.246525 6.134339 -4.554544 0.648900 -0.000001 -25.447400 8.386755 -0.106136 -1.775518 11.444120 3.145824 -8.186514 3.015062 1.534380 1.505836 -0.595654 0.244466 -11.157326 0.099900 0.000000 -7.325100
1.162646 17.252886 -0.637201 39.173123 -88.543906 -18.836112 -8.602909 -1.680496 -0.203070 -10.021349 -3.046710 -41.288757 -2.735581 -0.652377 10.433433 1.068921 5.192625 -4.200079 0.616900 -0.000000 -26.367100 8.392300 -0.144973 -1.828352 11.645975 3.093399 -7.524529 3.054164 1.537909 1.526097 -0.564558 0.529457 -11.442795 0.109500 -0.000000 -7.699400
1.038781 17.229782 -0.635819 41.144119 -88.952614 -20.929787 -8.562284 -1.756132 -0.176816 -10.028300 -2.594318 -41.386880 -2.858112 -0.832572 8.577227 0.881285 4.195318 -3.785347 0.576100 -0.000000 -27.352600 8.399737 -0.187822 -1.871231 11.851035 3.063092 -6.872037 3.091845 1.538351 1.571777 -0.538984 0.788550 -11.735878 0.117200 0.000001 -8.079800
0.914109 17.205836 -0.633600 44.072248 -89.350042 -23.990382 -8.522798 -1.835481 -0.168403 -10.066382 -2.099798 -41.495249 -2.975826 -1.000829 6.831998 0.691507 3.190038 -3.293501 0.529499 0.000000 -28.428700 8.413294 -0.234952 -1.910638 12.052248 3.035867 -6.215018 3.127163 1.534725 1.629525 -0.518004 1.023184 -12.028890 0.123000 -0.000000 -8.470200
0.788244 17.180922 -0.630540 48.999062 -89.722556 -29.050399 -8.482734 -1.921649 -0.178152 -10.150602 -1.559091 -41.640231 -3.092513 -1.156327 5.234813 0.501523 2.177888 -2.748538 0.472500 -0.000000 -29.518000 8.434980 -0.293507 -1.939142 12.250964 3.017127 -5.570994 3.160340 1.525068 1.706883 -0.503229 1.228138 -12.333466 0.127900 0.000000 -8.855700
0.661169 17.155041 -0.626668 -121.276398 -89.973643 141.092135 -8.448573 -2.031775 -0.206814 -10.284329 -1.002827 -41.817005 -3.208785 -1.303494 3.801622 0.315749 1.185351 -2.172565 0.404800 -0.000001 -30.590400 8.461607 -0.379705 -1.955606 12.446172 2.993429 -4.945915 3.192537 1.503800 1.796380 -0.495401 1.399919 -12.653370 0.132000 0.000000 -9.231700
0.532822 17.128294 -0.622089 -97.658557 -89.871089 117.340999 -8.493992 -2.222278 -0.253092 -10.481612 -0.510261 -41.982917 -3.319966 -1.450511 2.525861 0.141244 0.268332 -1.583959 0.332400 0.000000 -31.619700 8.427956 -0.535519 -1.966963 12.608875 2.927864 -4.339210 3.228709 1.459049 1.877705 -0.495100 1.538282 -12.995346 0.134600 0.000000 -9.611800
0.403252 17.100637 -0.616815 133.219398 -89.708144 -113.670168 -8.856021 -2.449069 -0.266809 -10.804146 -0.078132 -42.157317 -3.391065 -1.547322 1.355606 0.009146 -0.474133 -1.059628 0.259800 0.000000 -32.554500 8.057529 -0.681184 -2.024919 12.599490 2.850230 -3.692495 3.275594 1.431347 1.998108 -0.492490 1.710816 -13.358695 0.135000 -0.000000 -10.016800
0.272556 17.075427 -0.616042 173.660214 -88.031664 -154.242909 -8.900303 -2.343077 -0.429058 -11.375293 1.419839 -42.404917 -3.516862 -1.588373 0.133770 -0.085898 -1.174399 -0.753893 0.169100 0.000000 -33.423000 7.949944 -0.500407 -1.911127 12.270494 3.859681 -3.051857 3.233924 1.449281 2.494158 -0.492964 1.878018 -13.788126 0.144200 0.000000 -10.527400
0.139903 17.045672 -0.609206 179.799158 -87.628801 -160.513886 -8.855847 -2.335065 -0.409124 -11.466341 1.808052 -42.640172 -3.561117 -1.657273 -0.699534 -0.156847 -1.633048 -0.532215 0.111900 -0.000001 -34.003900 7.961953 -0.486747 -1.973674 12.377848 3.765921 -2.416424 3.259650 1.448622 2.730294 -0.475932 2.113646 -14.112036 0.139100 -0.000000 -10.997500
